<svg version="1.1" xmlns="http://www.w3.org/2000/svg" xmlns:xlink="http://www.w3.org/1999/xlink">
	<symbol id="icon-search" viewBox="0 0 56.966 56.966">
		<path
			d="M55.146 51.887 41.588 37.786A22.926 22.926 0 0 0 46.984 23c0-12.682-10.318-23-23-23s-23 10.318-23 23 10.318 23 23 23c4.761 0 9.298-1.436 13.177-4.162l13.661 14.208c.571.593 1.339.92 2.162.92.779 0 1.518-.297 2.079-.837a3.004 3.004 0 0 0 .083-4.242zM23.984 6c9.374 0 17 7.626 17 17s-7.626 17-17 17-17-7.626-17-17 7.626-17 17-17z" />
	</symbol>

    <symbol id="icon-news" viewBox="0 0 64 64">
        <path fill-rule="evenodd" clip-rule="evenodd" d="M33.9866 14.16C33.8921 13.9741 33.7553 13.813 33.5872 13.6896C33.4191 13.5662 33.2244 13.484 33.0187 13.4495C32.813 13.415 32.6022 13.4292 32.403 13.491C32.2038 13.5528 32.0219 13.6605 31.8719 13.8053L20.8039 24.5053L28.5026 39.6626L43.7119 37.136C43.9187 37.1018 44.1145 37.0193 44.2834 36.8953C44.4523 36.7712 44.5896 36.6091 44.6841 36.4221C44.7787 36.2351 44.8278 36.0284 44.8276 35.8189C44.8273 35.6093 44.7776 35.4028 44.6826 35.216L33.9866 14.16ZM29.7679 42.1546L44.1493 39.7653C44.769 39.6623 45.3558 39.4148 45.8621 39.0428C46.3684 38.6708 46.7799 38.1848 47.0634 37.6241C47.3468 37.0635 47.4942 36.4439 47.4936 35.8156C47.493 35.1874 47.3445 34.5681 47.0599 34.008L36.3653 12.9533C36.0818 12.3952 35.6712 11.9115 35.1667 11.5409C34.6622 11.1704 34.0778 10.9235 33.4604 10.82C32.8431 10.7165 32.21 10.7593 31.6122 10.9451C31.0145 11.1308 30.4686 11.4542 30.0186 11.8893L18.3866 23.1333L10.4599 27.16C9.51425 27.6404 8.79812 28.4769 8.46906 29.4853C8.14001 30.4937 8.22497 31.5915 8.70528 32.5373L14.9413 44.8173C15.1793 45.2856 15.5072 45.7025 15.9064 46.0441C16.3055 46.3856 16.768 46.6452 17.2674 46.808C17.7669 46.9709 18.2936 47.0337 18.8173 46.993C19.3411 46.9522 19.8517 46.8087 20.3199 46.5707L21.9946 45.72L25.5079 52.6373C25.9884 53.583 26.8248 54.2991 27.8333 54.6282C28.8417 54.9573 29.9395 54.8723 30.8853 54.392L31.3719 54.1453C31.8404 53.9074 32.2574 53.5796 32.5991 53.1805C32.9408 52.7814 33.2005 52.3189 33.3635 51.8195C33.5264 51.32 33.5893 50.7933 33.5487 50.2695C33.5081 49.7457 33.3646 49.235 33.1266 48.7667L29.7679 42.1546ZM27.2359 43.0573L24.3719 44.5133L27.8853 51.4293C28.0454 51.7445 28.324 51.9832 28.6601 52.093C28.9961 52.2028 29.362 52.1746 29.6773 52.0146L30.1639 51.7666C30.4791 51.6066 30.7179 51.3279 30.8276 50.9918C30.9374 50.6558 30.9092 50.2899 30.7493 49.9746L27.2359 43.0573ZM26.0279 40.68L18.5839 26.024L11.6666 29.536C11.5105 29.6154 11.3715 29.7247 11.2577 29.8578C11.1438 29.9909 11.0573 30.1451 11.0031 30.3117C10.9489 30.4782 10.928 30.6538 10.9416 30.8284C10.9553 31.003 11.0032 31.1732 11.0826 31.3293L17.3199 43.6093C17.4803 43.9243 17.7591 44.1627 18.0951 44.2722C18.4311 44.3817 18.7968 44.3533 19.1119 44.1933L26.0279 40.68ZM47.4453 7.54532C47.693 7.79764 47.8303 8.13801 47.827 8.49157C47.8238 8.84513 47.6802 9.18292 47.4279 9.43065L41.6319 15.1226C41.3796 15.3705 41.0392 15.508 40.6855 15.5049C40.3318 15.5018 39.9938 15.3583 39.7459 15.106C39.4981 14.8537 39.3605 14.5132 39.3637 14.1595C39.3668 13.8058 39.5103 13.4679 39.7626 13.22L45.5599 7.52665C45.8124 7.27915 46.1529 7.14207 46.5065 7.14557C46.86 7.14907 47.1977 7.29286 47.4453 7.54532ZM54.2666 15.28C54.4377 15.5894 54.479 15.9541 54.3812 16.2939C54.2834 16.6338 54.0547 16.9208 53.7453 17.092L44.9973 21.936C44.8441 22.0209 44.6756 22.0748 44.5016 22.0946C44.3275 22.1145 44.1513 22.0998 43.9829 22.0515C43.8145 22.0033 43.6573 21.9223 43.5202 21.8132C43.3831 21.7042 43.2689 21.5692 43.1839 21.416C43.099 21.2628 43.0451 21.0943 43.0253 20.9203C43.0055 20.7462 43.0201 20.57 43.0684 20.4016C43.1167 20.2332 43.1977 20.076 43.3067 19.9389C43.4158 19.8018 43.5507 19.6876 43.7039 19.6026L52.4533 14.7586C52.6065 14.6737 52.7749 14.6197 52.949 14.5998C53.123 14.5799 53.2993 14.5946 53.4677 14.6429C53.6361 14.6912 53.7933 14.7722 53.9304 14.8813C54.0675 14.9903 54.1817 15.1254 54.2666 15.2786V15.28ZM58.2093 25.048C58.2874 25.3926 58.2255 25.7541 58.0372 26.0531C57.849 26.3521 57.5498 26.5641 57.2053 26.6426L48.2999 28.6693C47.955 28.7476 47.593 28.6857 47.2937 28.4972C46.9944 28.3087 46.7823 28.0089 46.7039 27.664C46.6256 27.319 46.6875 26.9571 46.8761 26.6578C47.0646 26.3585 47.3643 26.1463 47.7093 26.068L56.6146 24.0426C56.9594 23.9646 57.321 24.0267 57.6201 24.2152C57.9191 24.4037 58.131 24.7032 58.2093 25.048Z"/>
    </symbol>

	<symbol id="icon-heart" viewBox="0 0 471.701 471.701">
		<path
			d="M433.601 67.001c-24.7-24.7-57.4-38.2-92.3-38.2s-67.7 13.6-92.4 38.3l-12.9 12.9-13.1-13.1c-24.7-24.7-57.6-38.4-92.5-38.4-34.8 0-67.6 13.6-92.2 38.2-24.7 24.7-38.3 57.5-38.2 92.4 0 34.9 13.7 67.6 38.4 92.3l187.8 187.8c2.6 2.6 6.1 4 9.5 4 3.4 0 6.9-1.3 9.5-3.9l188.2-187.5c24.7-24.7 38.3-57.5 38.3-92.4.1-34.9-13.4-67.7-38.1-92.4zm-19.2 165.7-178.7 178-178.3-178.3c-19.6-19.6-30.4-45.6-30.4-73.3s10.7-53.7 30.3-73.2c19.5-19.5 45.5-30.3 73.1-30.3 27.7 0 53.8 10.8 73.4 30.4l22.6 22.6c5.3 5.3 13.8 5.3 19.1 0l22.4-22.4c19.6-19.6 45.7-30.4 73.3-30.4 27.6 0 53.6 10.8 73.2 30.3 19.6 19.6 30.3 45.6 30.3 73.3.1 27.7-10.7 53.7-30.3 73.3z" />
	</symbol>

	<symbol id="icon-play" viewBox="0 0 72 72">
		<path
			d="M36 4C18.3268 4 4 18.3279 4 36C4 53.6727 18.3268 68 36 68C53.6732 68 68 53.6727 68 36C68 18.3279 53.6732 4 36 4ZM47.9138 37.7634L29.4483 48.4239C29.1713 48.584 28.8569 48.6682 28.537 48.6679C28.2975 48.668 28.0605 48.6209 27.8393 48.5293C27.6181 48.4377 27.4171 48.3034 27.2478 48.1341C27.0786 47.9648 26.9444 47.7638 26.8528 47.5425C26.7613 47.3213 26.7143 47.0842 26.7145 46.8448V25.5232C26.7144 25.2032 26.7986 24.8889 26.9584 24.6117C27.1183 24.3346 27.3482 24.1043 27.6252 23.9441C27.9025 23.784 28.2171 23.6996 28.5373 23.6996C28.8575 23.6996 29.1721 23.784 29.4494 23.9441L47.9149 34.6052C48.192 34.7653 48.4221 34.9955 48.5819 35.2727C48.7418 35.5499 48.8259 35.8643 48.8256 36.1843C48.8257 36.5044 48.7415 36.8189 48.5815 37.0961C48.4214 37.3734 48.1911 37.6035 47.9138 37.7634Z" />
	</symbol>

	<symbol id="icon-player" viewBox="0 0 94 94">
		<path
			d="M93.7099 66.547C93.5639 65.163 93.2549 62.102 92.8849 58.448C92.1859 51.549 91.3169 42.962 90.8749 38.936C89.7929 29.041 81.5199 21.574 71.6169 21.565C67.1819 21.565 63.1519 22.948 59.6269 25.681C57.9703 25.4305 56.3156 25.1675 54.6629 24.892L52.7609 24.581L49.5199 24.57V9H44.3749V24.554L41.6109 24.544L39.2569 24.889C37.5359 25.172 35.8949 25.441 34.2669 25.682C30.7459 22.951 26.7129 21.566 22.2619 21.566C12.3749 21.574 4.1019 29.042 3.0169 38.937C2.5799 42.934 1.7169 51.454 1.0249 58.3C0.647904 62.02 0.331903 65.145 0.183903 66.547C-0.881097 76.654 2.7149 83.46 10.0519 85.218C11.6069 85.591 13.1679 85.78 14.6939 85.78C20.7739 85.78 26.1889 82.868 29.9409 77.579C31.7039 75.093 33.6559 72.627 35.5439 70.242L36.7219 68.753H57.1729C57.5609 69.245 57.9489 69.736 58.3389 70.227C60.2299 72.617 62.1859 75.087 63.9529 77.58C67.7049 82.868 73.1189 85.779 79.1999 85.78C80.7636 85.7753 82.3223 85.5867 83.8419 85.218C91.1779 83.459 94.7749 76.654 93.7099 66.547ZM82.4429 79.383C81.3815 79.6416 80.2934 79.7745 79.2009 79.779C75.1179 79.779 71.4409 77.765 68.8469 74.108C66.9879 71.487 64.9819 68.953 63.0419 66.503C62.5039 65.823 61.9659 65.144 61.4319 64.463C60.6209 63.429 59.2619 62.757 57.9579 62.753H35.9239C34.6319 62.758 33.2729 63.429 32.4629 64.462C31.9239 65.149 31.3819 65.833 30.8399 66.517C28.9029 68.963 26.9009 71.492 25.0469 74.108C21.7829 78.711 16.7909 80.666 11.4509 79.383C6.1409 78.111 5.6379 72.043 6.1509 67.175C6.2989 65.768 6.6169 62.634 6.9939 58.904C7.6859 52.069 8.5479 43.561 8.9819 39.589C9.7319 32.74 15.4439 27.571 22.2769 27.566C25.4949 27.566 28.2949 28.565 30.8309 30.614C31.2669 30.968 32.2849 31.795 33.6779 31.795L34.1569 31.761C36.1789 31.475 38.1459 31.152 40.2289 30.81L41.8539 30.544H44.3749V46H49.5199V30.544H52.0389L53.6919 30.814C55.7649 31.154 57.7229 31.476 59.7559 31.764L60.2169 31.795C61.6099 31.795 62.6279 30.968 63.0579 30.619C65.5999 28.565 68.3999 27.566 71.6259 27.566C78.4499 27.571 84.1609 32.74 84.9099 39.59C85.3489 43.591 86.2179 52.164 86.9149 59.053C87.2859 62.718 87.5969 65.787 87.7429 67.176C88.2559 72.042 87.7529 78.11 82.4429 79.383ZM73.6169 49.758H79.1849V44.614H73.6169V49.758ZM61.0579 49.758H66.6239V44.614H61.0579V49.758ZM26.3449 38.122H21.1999V44.615H14.7079V49.759H21.1999V56.251H26.3449V49.759H32.8349V44.615H26.3449V38.122ZM67.5489 56.25H72.6939V50.682H67.5489V56.25ZM67.5489 43.69H72.6939V38.122H67.5489V43.69Z" />
	</symbol>

	<symbol id="icon-comment" viewBox="0 0 86 86">
		<path
			d="M16.3 67.7L12.7 75.2C12 76.6 12.3 78.3 13.3 79.5C14.1 80.3 15.1 80.8 16.2 80.8C16.6 80.8 17.1 80.7 17.5 80.6L34.8 74.4C37.3 74.8 39.9 75 42.5 75C65.9 75 85 59.5 85 40.5C85 21.5 65.9 6 42.5 6C19.1 6 0 21.5 0 40.5C0 51.1 6.1 61.2 16.3 67.7ZM42.5 12C62.6 12 79 24.8 79 40.5C79 56.2 62.6 69 42.5 69C40 69 37.6 68.8 35.2 68.4C34.6 68.3 33.9 68.4 33.3 68.6L20.3 73.2L22.5 68.5C23.4 66.7 22.7 64.4 20.9 63.4C11.5 58 6 49.4 6 40.4C6 24.8 22.4 12 42.5 12Z" />
		<path
			d="M23 33.4H62C63.7 33.4 65 32.1 65 30.4C65 28.7 63.7 27.4 62 27.4H23C21.3 27.4 20 28.7 20 30.4C20 32.1 21.3 33.4 23 33.4ZM23 44.4H52C53.7 44.4 55 43.1 55 41.4C55 39.7 53.7 38.4 52 38.4H23C21.3 38.4 20 39.7 20 41.4C20 43.1 21.3 44.4 23 44.4ZM23 55.4H42C43.7 55.4 45 54.1 45 52.4C45 50.7 43.7 49.4 42 49.4H23C21.3 49.4 20 50.7 20 52.4C20 54.1 21.3 55.4 23 55.4Z" />
	</symbol>

	<symbol id="icon-fullscreen" viewBox="0 0 72 72">
		<path
			d="M15.6363 56.3636H56.3636V15.6364H15.6363V56.3636ZM21.4545 21.4545H50.5454V50.5454H21.4545V21.4545Z" />
		<path
			d="M9.81818 50.5455H4V68H21.4545V62.1818H9.81818V50.5455ZM9.81818 9.81818H21.4545V4H4V21.4545H9.81818V9.81818ZM62.1818 62.1818H50.5455V68H68V50.5455H62.1818V62.1818ZM50.5455 4V9.81818H62.1818V21.4545H68V4H50.5455Z" />
	</symbol>

	<symbol id="icon-share" viewBox="0 0 72 72">
		<path
			d="M64.4785 7.52051C62.1322 5.17365 59.3053 4 56.0001 4H15.9999C12.6947 4 9.8678 5.17365 7.52051 7.52051C5.17365 9.8678 4 12.6945 4 15.9999V55.9997C4 59.3048 5.17365 62.1318 7.52051 64.4791C9.8678 66.8264 12.6947 68 15.9999 68H55.9997C59.3049 68 62.1318 66.8264 64.478 64.4791C66.8253 62.1318 67.999 59.3049 67.999 55.9997V15.9999C67.9988 12.6945 66.8252 9.86736 64.4785 7.52051ZM60.5415 29.8744L45.8752 44.5416C45.3469 45.0691 44.7226 45.3328 44.0003 45.3338C43.6677 45.3338 43.3331 45.2639 43.0004 45.1251C41.8887 44.6526 41.3333 43.8334 41.3333 42.6668V36.0002C37.4447 36.0002 34.333 36.3261 32 36.9792C29.6669 37.6321 27.8614 38.6803 26.5835 40.1246C23.6388 43.4309 22.7776 49.9993 23.9999 59.8332C24.0834 60.4994 23.8194 60.958 23.208 61.2077C23.0415 61.2916 22.861 61.3325 22.6667 61.3325C22.2496 61.3325 21.9026 61.1655 21.6249 60.832C16.9862 54.638 14.6666 49.0264 14.6666 43.9992C14.6666 42.3321 14.7365 40.7977 14.8751 39.3943C15.0138 37.9926 15.3124 36.4427 15.7706 34.7492C16.2289 33.0544 16.8466 31.5406 17.6245 30.2071C18.4024 28.8744 19.4651 27.5484 20.8124 26.2284C22.1593 24.9084 23.7429 23.8113 25.5622 22.9364C27.3813 22.0614 29.6383 21.3536 32.3329 20.8114C35.0271 20.27 38.0272 19.9988 41.3333 19.9988V13.3326C41.3333 12.1656 41.8887 11.3463 42.9995 10.8739C44.0832 10.4025 45.041 10.5962 45.8751 11.4572L60.5413 26.1242C61.0698 26.652 61.3335 27.2773 61.3335 27.9995C61.3335 28.7218 61.0699 29.3468 60.5415 29.8744Z" />
	</symbol>

	<symbol id="icon-arrow-right" viewBox="0 0 72 72">
		<path d="M54.566 39.5643L23.6072 70.5222C21.6378 72.4925 18.4448 72.4925 16.4764 70.5222C14.5079 68.5536 14.5079 65.3608 16.4764 63.3924L43.8702 35.9994L16.4772 8.60737C14.5087 6.63801 14.5087 3.44552 16.4772 1.47696C18.4458 -0.4924 21.6386 -0.4924 23.6079 1.47696L54.5668 32.4353C55.5511 33.4201 56.0427 34.7094 56.0427 35.9993C56.0427 37.2898 55.5501 38.58 54.566 39.5643Z" />
	</symbol>

	<symbol id="icon-star" viewBox="0 0 64 64">
		<path
			d="M59.7778 24.944C59.5483 24.2378 59.1279 23.6088 58.5631 23.1267C57.9984 22.6445 57.3113 22.3279 56.5778 22.212L42.2038 20.006L35.7618 6.33795C35.4479 5.64224 34.94 5.05183 34.299 4.6375C33.658 4.22317 32.9111 4.0025 32.1478 4.00195C30.5918 4.00195 29.2058 4.89795 28.5338 6.33395L22.0898 20.008L7.71584 22.214C6.98263 22.3306 6.29586 22.6474 5.73122 23.1294C5.16658 23.6115 4.746 24.2401 4.51584 24.946C4.26686 25.675 4.22418 26.4586 4.39254 27.2104C4.56089 27.9621 4.93371 28.6527 5.46984 29.206L15.9298 39.97L13.4578 55.194C13.1978 56.798 13.8458 58.362 15.1518 59.28C15.7554 59.706 16.4671 59.9528 17.2048 59.9921C17.9426 60.0314 18.6764 59.8615 19.3218 59.502L32.1138 52.366L44.9758 59.502C45.6202 59.8636 46.3541 60.0348 47.092 59.9955C47.8299 59.9562 48.5415 59.708 49.1438 59.28C49.784 58.8296 50.2831 58.2066 50.583 57.4836C50.8829 56.7606 50.9713 55.9672 50.8378 55.196L48.3658 39.972L58.8258 29.208C59.362 28.6547 59.7348 27.9641 59.9032 27.2124C60.0715 26.4606 60.0288 25.677 59.7798 24.948L59.7778 24.944Z" />
	</symbol>

	<symbol id="icon-lock" viewBox="0 0 228 280">
		<path d="M124.423 217.172V197.554C130.126 194.042 133.951 187.794 133.951 180.606C133.951 165.458 117.068 154.257 101.086 164.784C99.915 165.56 98.8905 166.586 98.1285 167.767C90.2851 179.809 94.6458 192.041 103.58 197.554V217.172H124.423Z" fill="#E3E3E3"/>
		<path d="M98.1284 167.767C98.8905 166.586 99.915 165.56 101.086 164.784C117.068 154.257 133.951 165.458 133.951 180.606C133.951 187.794 130.126 194.042 124.423 197.554V217.172H103.58V197.554C94.6457 192.041 90.2851 179.809 98.1284 167.767ZM85.5402 44.7653C121.766 21.7572 159.902 47.4302 159.902 81.8766H195.738C195.738 23.044 133.247 -21.4858 71.185 11.2051C47.0252 23.928 32.2721 49.3856 32.2721 76.6909V112.035H16.2212C7.63176 112.035 0.672302 118.994 0.672302 127.581V251.013H227.328V127.578C227.328 118.994 220.373 112.035 211.787 112.035H195.738H159.902H68.1084V76.794C68.1084 63.8598 74.6262 51.7028 85.5402 44.7653Z" fill="#616E7D"/>
		<path d="M25.5559 279.865H202.455C214.065 279.865 223.798 271.888 226.529 261.124H1.47363C4.21297 271.888 13.9451 279.865 25.5559 279.865Z" fill="#616E7D"/>
	</symbol>

</svg>