<svg width="132" height="45" viewBox="0 0 132 45" fill="none" xmlns="http://www.w3.org/2000/svg">
<path d="M103.776 10.1405V1.31859C103.776 0.648747 103.917 0.538258 104.574 0.776501C106.86 1.59826 109.166 2.37169 111.477 3.13476C111.957 3.29704 112.183 3.4973 112.183 4.04629C112.162 9.05974 112.162 14.0732 112.183 19.0866C112.183 19.6805 111.985 19.8083 111.42 19.8048C109.11 19.7772 106.796 19.7703 104.483 19.8048C103.864 19.8048 103.776 19.5942 103.776 19.0521V10.1405Z" fill="#1201FD"/>
<path d="M112.211 35.5357V44.1677C112.211 44.9308 112.035 45.1725 111.219 44.879C109.025 44.0814 106.81 43.3321 104.588 42.6071C104.315 42.5518 104.074 42.3966 103.915 42.1731C103.755 41.9497 103.689 41.675 103.73 41.4055C103.758 36.5117 103.758 31.6191 103.73 26.7277C103.73 26.0958 103.893 25.8507 104.578 25.861C106.828 25.8956 109.082 25.899 111.332 25.861C112.081 25.861 112.229 26.1476 112.225 26.7967C112.197 29.7109 112.215 32.6216 112.211 35.5357Z" fill="#2EF278"/>
<path d="M98.3928 22.5912C98.3928 25.0703 98.3716 27.5494 98.3928 30.0251C98.3928 30.6811 98.1914 30.871 97.5309 30.8607C95.282 30.8261 93.0319 30.8261 90.7806 30.8607C90.166 30.871 90 30.6708 90 30.0665C90.0259 24.183 90.0259 18.2948 90 12.4021C90 11.6666 90.1872 11.5872 90.8513 11.8289C93.0802 12.6403 95.3197 13.4379 97.5768 14.1285C98.2656 14.346 98.414 14.6913 98.4069 15.33C98.3716 17.7608 98.3928 20.1777 98.3928 22.5912Z" fill="#F8048C"/>
<path d="M126.383 21.1583V29.9837C126.383 30.5637 126.319 30.8745 125.592 30.6155C123.303 29.7961 121.003 29.0054 118.693 28.2435C118.466 28.1944 118.267 28.0629 118.136 27.8757C118.005 27.6885 117.952 27.4596 117.987 27.2352C118.005 22.2816 118.005 17.3326 117.987 12.3883C117.987 11.7909 118.163 11.5665 118.795 11.5734C121.046 11.601 123.296 11.6079 125.546 11.5734C126.235 11.5734 126.401 11.8116 126.397 12.44C126.383 15.3335 126.383 18.2442 126.383 21.1583Z" fill="#FBA408"/>
<mask id="path-5-outside-1_50_54" maskUnits="userSpaceOnUse" x="-1" y="8" width="82" height="32" fill="black">
<rect fill="white" x="-1" y="8" width="82" height="32"/>
<path d="M19.488 12.856L19.072 26.68L19.424 34.296L15.648 35.096L6.112 19.672V26.68L6.56 35H2.56L2.944 27.224L2.56 13.016L6.4 12.824L15.904 28.472L15.584 13.336L19.488 12.856ZM24.6225 35L25.0065 27.224L24.6225 12.92H36.6225L36.2705 16.344H29.0705L28.8785 22.008H35.2785L34.9265 25.4H28.7505L28.7185 26.68L28.9425 31.608H36.6865L36.3345 35H24.6225ZM52.6285 35.288L47.2845 27L42.1325 35.32L38.6765 33.624L44.9805 24.024L38.1965 15.32L42.1645 12.728L47.3165 20.728L52.2765 12.6L55.6365 14.584L49.7805 23.704L56.5645 32.792L52.6285 35.288ZM68.4575 12.6C70.9748 12.6 73.0442 13.56 74.6655 15.48C76.3082 17.4 77.1295 19.8427 77.1295 22.808C77.1295 26.5627 76.1588 29.592 74.2175 31.896C72.2762 34.2 69.7268 35.352 66.5695 35.352C64.1162 35.352 62.0575 34.3707 60.3935 32.408C58.7295 30.424 57.8975 27.9813 57.8975 25.08C57.8975 21.4533 58.8895 18.4667 60.8735 16.12C62.8575 13.7733 65.3855 12.6 68.4575 12.6ZM72.7775 24.6C72.7775 19.2027 71.0068 16.504 67.4655 16.504C65.8442 16.504 64.5642 17.112 63.6255 18.328C62.7082 19.5227 62.2495 21.3253 62.2495 23.736C62.2495 26.1253 62.7402 28.0987 63.7215 29.656C64.7242 31.192 66.0362 31.96 67.6575 31.96C69.3002 31.96 70.5588 31.3093 71.4335 30.008C72.3295 28.6853 72.7775 26.8827 72.7775 24.6Z"/>
</mask>
<path d="M19.488 12.856L19.072 26.68L19.424 34.296L15.648 35.096L6.112 19.672V26.68L6.56 35H2.56L2.944 27.224L2.56 13.016L6.4 12.824L15.904 28.472L15.584 13.336L19.488 12.856ZM24.6225 35L25.0065 27.224L24.6225 12.92H36.6225L36.2705 16.344H29.0705L28.8785 22.008H35.2785L34.9265 25.4H28.7505L28.7185 26.68L28.9425 31.608H36.6865L36.3345 35H24.6225ZM52.6285 35.288L47.2845 27L42.1325 35.32L38.6765 33.624L44.9805 24.024L38.1965 15.32L42.1645 12.728L47.3165 20.728L52.2765 12.6L55.6365 14.584L49.7805 23.704L56.5645 32.792L52.6285 35.288ZM68.4575 12.6C70.9748 12.6 73.0442 13.56 74.6655 15.48C76.3082 17.4 77.1295 19.8427 77.1295 22.808C77.1295 26.5627 76.1588 29.592 74.2175 31.896C72.2762 34.2 69.7268 35.352 66.5695 35.352C64.1162 35.352 62.0575 34.3707 60.3935 32.408C58.7295 30.424 57.8975 27.9813 57.8975 25.08C57.8975 21.4533 58.8895 18.4667 60.8735 16.12C62.8575 13.7733 65.3855 12.6 68.4575 12.6ZM72.7775 24.6C72.7775 19.2027 71.0068 16.504 67.4655 16.504C65.8442 16.504 64.5642 17.112 63.6255 18.328C62.7082 19.5227 62.2495 21.3253 62.2495 23.736C62.2495 26.1253 62.7402 28.0987 63.7215 29.656C64.7242 31.192 66.0362 31.96 67.6575 31.96C69.3002 31.96 70.5588 31.3093 71.4335 30.008C72.3295 28.6853 72.7775 26.8827 72.7775 24.6Z" fill="black"/>
<path d="M19.488 12.856L22.4866 12.9462L22.5918 9.45179L19.1219 9.87842L19.488 12.856ZM19.072 26.68L16.0734 26.5898L16.0699 26.7042L16.0752 26.8185L19.072 26.68ZM19.424 34.296L20.0458 37.2309L22.5384 36.7028L22.4208 34.1575L19.424 34.296ZM15.648 35.096L13.0963 36.6736L14.2058 38.4681L16.2698 38.0309L15.648 35.096ZM6.112 19.672L8.6637 18.0944L3.112 9.1148V19.672H6.112ZM6.112 26.68H3.112V26.7607L3.11634 26.8413L6.112 26.68ZM6.56 35V38H9.72588L9.55566 34.8387L6.56 35ZM2.56 35L-0.436349 34.852L-0.591804 38H2.56V35ZM2.944 27.224L5.94035 27.372L5.946 27.2575L5.9429 27.1429L2.944 27.224ZM2.56 13.016L2.41019 10.0197L-0.518118 10.1662L-0.438905 13.0971L2.56 13.016ZM6.4 12.824L8.96411 11.2667L8.03594 9.73845L6.25019 9.82774L6.4 12.824ZM15.904 28.472L13.3399 30.0293L19.1395 39.5782L18.9033 28.4086L15.904 28.472ZM15.584 13.336L15.2179 10.3584L12.5274 10.6892L12.5847 13.3994L15.584 13.336ZM16.4894 12.7658L16.0734 26.5898L22.0706 26.7702L22.4866 12.9462L16.4894 12.7658ZM16.0752 26.8185L16.4272 34.4345L22.4208 34.1575L22.0688 26.5415L16.0752 26.8185ZM18.8022 31.3611L15.0262 32.1611L16.2698 38.0309L20.0458 37.2309L18.8022 31.3611ZM18.1997 33.5184L8.6637 18.0944L3.5603 21.2496L13.0963 36.6736L18.1997 33.5184ZM3.112 19.672V26.68H9.112V19.672H3.112ZM3.11634 26.8413L3.56434 35.1613L9.55566 34.8387L9.10766 26.5187L3.11634 26.8413ZM6.56 32H2.56V38H6.56V32ZM5.55635 35.148L5.94035 27.372L-0.0523485 27.076L-0.436349 34.852L5.55635 35.148ZM5.9429 27.1429L5.55891 12.9349L-0.438905 13.0971L-0.0549047 27.3051L5.9429 27.1429ZM2.70981 16.0123L6.54981 15.8203L6.25019 9.82774L2.41019 10.0197L2.70981 16.0123ZM3.83589 14.3813L13.3399 30.0293L18.4681 26.9147L8.96411 11.2667L3.83589 14.3813ZM18.9033 28.4086L18.5833 13.2726L12.5847 13.3994L12.9047 28.5354L18.9033 28.4086ZM15.9501 16.3136L19.8541 15.8336L19.1219 9.87842L15.2179 10.3584L15.9501 16.3136ZM24.6225 35L21.6262 34.852L21.4707 38H24.6225V35ZM25.0065 27.224L28.0028 27.372L28.0085 27.2578L28.0054 27.1435L25.0065 27.224ZM24.6225 12.92V9.92H21.5409L21.6236 13.0005L24.6225 12.92ZM36.6225 12.92L39.6068 13.2268L39.9467 9.92H36.6225V12.92ZM36.2705 16.344V19.344H38.9779L39.2548 16.6508L36.2705 16.344ZM29.0705 16.344V13.344H26.1705L26.0722 16.2424L29.0705 16.344ZM28.8785 22.008L25.8802 21.9064L25.7751 25.008H28.8785V22.008ZM35.2785 22.008L38.2625 22.3177L38.6059 19.008H35.2785V22.008ZM34.9265 25.4V28.4H37.6313L37.9105 25.7097L34.9265 25.4ZM28.7505 25.4V22.4H25.8246L25.7514 25.325L28.7505 25.4ZM28.7185 26.68L25.7194 26.605L25.7168 26.7107L25.7216 26.8162L28.7185 26.68ZM28.9425 31.608L25.9456 31.7442L26.0758 34.608H28.9425V31.608ZM36.6865 31.608L39.6705 31.9177L40.0139 28.608H36.6865V31.608ZM36.3345 35V38H39.0393L39.3185 35.3097L36.3345 35ZM27.6188 35.148L28.0028 27.372L22.0102 27.076L21.6262 34.852L27.6188 35.148ZM28.0054 27.1435L27.6214 12.8395L21.6236 13.0005L22.0076 27.3045L28.0054 27.1435ZM24.6225 15.92H36.6225V9.92H24.6225V15.92ZM33.6382 12.6132L33.2862 16.0372L39.2548 16.6508L39.6068 13.2268L33.6382 12.6132ZM36.2705 13.344H29.0705V19.344H36.2705V13.344ZM26.0722 16.2424L25.8802 21.9064L31.8768 22.1096L32.0688 16.4456L26.0722 16.2424ZM28.8785 25.008H35.2785V19.008H28.8785V25.008ZM32.2945 21.6983L31.9425 25.0903L37.9105 25.7097L38.2625 22.3177L32.2945 21.6983ZM34.9265 22.4H28.7505V28.4H34.9265V22.4ZM25.7514 25.325L25.7194 26.605L31.7176 26.755L31.7496 25.475L25.7514 25.325ZM25.7216 26.8162L25.9456 31.7442L31.9394 31.4718L31.7154 26.5438L25.7216 26.8162ZM28.9425 34.608H36.6865V28.608H28.9425V34.608ZM33.7025 31.2983L33.3505 34.6903L39.3185 35.3097L39.6705 31.9177L33.7025 31.2983ZM36.3345 32H24.6225V38H36.3345V32ZM52.6285 35.288L50.1072 36.9137L51.7207 39.4161L54.2351 37.8215L52.6285 35.288ZM47.2845 27L49.8058 25.3743L47.2332 21.3844L44.7339 25.4206L47.2845 27ZM42.1325 35.32L40.8108 38.0132L43.2517 39.211L44.6831 36.8994L42.1325 35.32ZM38.6765 33.624L36.1688 31.9773L34.3026 34.8193L37.3548 36.3172L38.6765 33.624ZM44.9805 24.024L47.4882 25.6707L48.6676 23.8746L47.3467 22.1798L44.9805 24.024ZM38.1965 15.32L36.5558 12.8084L33.8254 14.5919L35.8303 17.1642L38.1965 15.32ZM42.1645 12.728L44.6867 11.1037L43.0518 8.56503L40.5238 10.2164L42.1645 12.728ZM47.3165 20.728L44.7943 22.3523L47.3849 26.3751L49.8773 22.2907L47.3165 20.728ZM52.2765 12.6L53.8019 10.0167L51.2558 8.51337L49.7157 11.0373L52.2765 12.6ZM55.6365 14.584L58.1609 16.2049L59.8436 13.5843L57.1619 12.0007L55.6365 14.584ZM49.7805 23.704L47.2561 22.0831L46.1328 23.8325L47.3764 25.4986L49.7805 23.704ZM56.5645 32.792L58.1711 35.3255L60.9052 33.5917L58.9686 30.9974L56.5645 32.792ZM55.1498 33.6623L49.8058 25.3743L44.7632 28.6257L50.1072 36.9137L55.1498 33.6623ZM44.7339 25.4206L39.5819 33.7406L44.6831 36.8994L49.8351 28.5794L44.7339 25.4206ZM43.4542 32.6268L39.9982 30.9308L37.3548 36.3172L40.8108 38.0132L43.4542 32.6268ZM41.1842 35.2707L47.4882 25.6707L42.4728 22.3773L36.1688 31.9773L41.1842 35.2707ZM47.3467 22.1798L40.5627 13.4758L35.8303 17.1642L42.6143 25.8682L47.3467 22.1798ZM39.8372 17.8316L43.8052 15.2396L40.5238 10.2164L36.5558 12.8084L39.8372 17.8316ZM39.6423 14.3523L44.7943 22.3523L49.8387 19.1037L44.6867 11.1037L39.6423 14.3523ZM49.8773 22.2907L54.8373 14.1627L49.7157 11.0373L44.7557 19.1653L49.8773 22.2907ZM50.7511 15.1833L54.1111 17.1673L57.1619 12.0007L53.8019 10.0167L50.7511 15.1833ZM53.1121 12.9631L47.2561 22.0831L52.3049 25.3249L58.1609 16.2049L53.1121 12.9631ZM47.3764 25.4986L54.1604 34.5866L58.9686 30.9974L52.1846 21.9094L47.3764 25.4986ZM54.9579 30.2585L51.0219 32.7545L54.2351 37.8215L58.1711 35.3255L54.9579 30.2585ZM74.6655 15.48L72.3734 17.4155L72.3797 17.4229L72.3859 17.4303L74.6655 15.48ZM74.2175 31.896L71.9233 29.9629L74.2175 31.896ZM60.3935 32.408L58.0949 34.3358L58.1001 34.342L58.1052 34.3481L60.3935 32.408ZM63.6255 18.328L61.2507 16.4948L61.246 16.5009L63.6255 18.328ZM63.7215 29.656L61.1834 31.2554L61.1962 31.2757L61.2094 31.2959L63.7215 29.656ZM71.4335 30.008L68.9497 28.3254L68.9436 28.3345L71.4335 30.008ZM68.4575 15.6C70.0931 15.6 71.3232 16.1719 72.3734 17.4155L76.9576 13.5445C74.7651 10.9481 71.8566 9.6 68.4575 9.6V15.6ZM72.3859 17.4303C73.4852 18.7151 74.1295 20.4271 74.1295 22.808H80.1295C80.1295 19.2582 79.1311 16.0849 76.9451 13.5297L72.3859 17.4303ZM74.1295 22.808C74.1295 26.0349 73.3051 28.323 71.9233 29.9629L76.5117 33.8291C79.0126 30.861 80.1295 27.0905 80.1295 22.808H74.1295ZM71.9233 29.9629C70.5826 31.5541 68.8908 32.352 66.5695 32.352V38.352C70.5629 38.352 73.9697 36.8459 76.5117 33.8291L71.9233 29.9629ZM66.5695 32.352C65.0457 32.352 63.8076 31.7959 62.6818 30.4679L58.1052 34.3481C60.3074 36.9455 63.1867 38.352 66.5695 38.352V32.352ZM62.6921 30.4802C61.5361 29.1019 60.8975 27.3667 60.8975 25.08H54.8975C54.8975 28.596 55.9229 31.7461 58.0949 34.3358L62.6921 30.4802ZM60.8975 25.08C60.8975 22.0283 61.718 19.7677 63.1644 18.0569L58.5826 14.1831C56.061 17.1656 54.8975 20.8783 54.8975 25.08H60.8975ZM63.1644 18.0569C64.5786 16.3842 66.2687 15.6 68.4575 15.6V9.6C64.5023 9.6 61.1364 11.1625 58.5826 14.1831L63.1644 18.0569ZM75.7775 24.6C75.7775 21.6687 75.314 18.9493 73.9578 16.8822C72.457 14.5949 70.1307 13.504 67.4655 13.504V19.504C68.3416 19.504 68.6713 19.7624 68.9412 20.1738C69.3557 20.8054 69.7775 22.1339 69.7775 24.6H75.7775ZM67.4655 13.504C64.9744 13.504 62.7931 14.4968 61.2507 16.4948L66.0003 20.1612C66.3353 19.7272 66.7139 19.504 67.4655 19.504V13.504ZM61.246 16.5009C59.7483 18.4514 59.2495 21.0329 59.2495 23.736H65.2495C65.2495 21.6177 65.668 20.5939 66.005 20.1551L61.246 16.5009ZM59.2495 23.736C59.2495 26.5254 59.8226 29.0959 61.1834 31.2554L66.2596 28.0566C65.6577 27.1015 65.2495 25.7252 65.2495 23.736H59.2495ZM61.2094 31.2959C62.6805 33.5495 64.8758 34.96 67.6575 34.96V28.96C67.1965 28.96 66.7679 28.8345 66.2336 28.0161L61.2094 31.2959ZM67.6575 34.96C70.2424 34.96 72.4604 33.8581 73.9234 31.6815L68.9436 28.3345C68.6573 28.7606 68.3579 28.96 67.6575 28.96V34.96ZM73.9173 31.6905C75.2654 29.7004 75.7775 27.2362 75.7775 24.6H69.7775C69.7775 26.5291 69.3936 27.6703 68.9497 28.3255L73.9173 31.6905Z" fill="#D5F5F0" mask="url(#path-5-outside-1_50_54)"/>
</svg>
